# xmcd
#
# Track frame offsets:
#	150
#	16238
#	37816
#	55471
#	71079
#	86494
#	99149
#	122299
#	142336
#	155001
#
# Disc length: 2262 seconds
#
# Revision: 16
# Processed by: cddbd v1.5.2PL0 Copyright (c) Steve Scherf et al.
# Submitted via: Jack! The Knife 20 Magnifico
#
DISCID=7d08d40a
DTITLE=Scorpions - In Trance
DYEAR=1975
DGENRE=Hard Rock
TTITLE0=Dark Lady
TTITLE1=In Trance
TTITLE2=Life's Like A River
TTITLE3=Top Of The Bill
TTITLE4=Living And Dying
TTITLE5=Robot Man
TTITLE6=Evening Wind
TTITLE7=Sun In My Hand
TTITLE8=Longing For Fire
TTITLE9=Night Lights
EXTD=Dieter Dierks
EXTT0=Ulrich Roth
EXTT1=Meine, Schenker
EXTT2=Roth, Schenker, Fortmann
EXTT3=Meine, Schenker
EXTT4=Meine, Schenker
EXTT5=Meine, Schenker
EXTT6=Ulrich Roth
EXTT7=Ulrich Roth
EXTT8=Schenker, Roth
EXTT9=Ulrich Roth
PLAYORDER=
